<!DOCTYPE svg PUBLIC "-//W3C//DTD SVG 1.1//EN" "http://www.w3.org/Graphics/SVG/1.1/DTD/svg11.dtd">

<!-- Uploaded to: SVG Repo, www.svgrepo.com, Transformed by: SVG Repo Mixer Tools -->


<svg width="800px" height="800px" viewBox="-2.4 -2.4 28.80 28.80" fill="none" xmlns="http://www.w3.org/2000/svg" stroke="#e09c0b" transform="matrix(1, 0, 0, 1, 0, 0)rotate(0)" stroke-width="0.40800000000000003">

<g id="SVGRepo_bgCarrier" stroke-width="0"/>

<g id="SVGRepo_tracerCarrier" stroke-linecap="round" stroke-linejoin="round" stroke="#CCCCCC" stroke-width="0.048"/>

<g id="SVGRepo_iconCarrier">

<path clip-rule="evenodd" d="M3 4C1.89543 4 1 4.89543 1 6V18C1 19.1046 1.89543 20 3 20H21C22.1046 20 23 19.1046 23 18V6C23 4.89543 22.1046 4 21 4H3ZM7 15C6.44775 15 6 14.5522 6 14V13H5C4.44775 13 4 12.5522 4 12C4 11.4478 4.44775 11 5 11H6V10C6 9.44775 6.44775 9 7 9C7.55225 9 8 9.44775 8 10V11H9C9.55225 11 10 11.4478 10 12C10 12.5522 9.55225 13 9 13H8V14C8 14.5522 7.55225 15 7 15ZM17 11C17.5522 11 18 10.5522 18 10C18 9.44775 17.5522 9 17 9C16.4478 9 16 9.44775 16 10C16 10.5522 16.4478 11 17 11ZM18 14C18 14.5522 17.5522 15 17 15C16.4478 15 16 14.5522 16 14C16 13.4478 16.4478 13 17 13C17.5522 13 18 13.4478 18 14ZM18 12C18 12.5522 18.4478 13 19 13C19.5522 13 20 12.5522 20 12C20 11.4478 19.5522 11 19 11C18.4478 11 18 11.4478 18 12ZM15 13C14.4478 13 14 12.5522 14 12C14 11.4478 14.4478 11 15 11C15.5522 11 16 11.4478 16 12C16 12.5522 15.5522 13 15 13Z" fill="#4F4F4F" fill-rule="evenodd"/>

</g>

</svg>